<svg xmlns="http://www.w3.org/2000/svg" xmlns:xlink="http://www.w3.org/1999/xlink" width="1920" zoomAndPan="magnify" viewBox="0 0 1440 809.999993" height="1080" preserveAspectRatio="xMidYMid meet" version="1.0"><defs><clipPath id="d63473358a"><path d="M 510.582031 203 L 866.082031 203 L 866.082031 526 L 510.582031 526 Z M 510.582031 203 " clip-rule="nonzero"/></clipPath><clipPath id="7df7b92ab3"><path d="M 866.082031 316.125 L 866.082031 493.898438 C 866.082031 494.941406 866.027344 495.976562 865.925781 497.011719 C 865.824219 498.046875 865.671875 499.070312 865.464844 500.089844 C 865.261719 501.109375 865.007812 502.117188 864.707031 503.109375 C 864.40625 504.105469 864.054688 505.082031 863.65625 506.042969 C 863.257812 507.003906 862.8125 507.941406 862.324219 508.859375 C 861.832031 509.773438 861.300781 510.664062 860.722656 511.527344 C 860.144531 512.390625 859.527344 513.226562 858.867188 514.027344 C 858.207031 514.832031 857.507812 515.601562 856.773438 516.335938 C 856.039062 517.070312 855.269531 517.769531 854.46875 518.429688 C 853.664062 519.085938 852.832031 519.707031 851.96875 520.285156 C 851.101562 520.863281 850.210938 521.394531 849.296875 521.886719 C 848.378906 522.375 847.441406 522.820312 846.480469 523.21875 C 845.523438 523.617188 844.546875 523.96875 843.550781 524.269531 C 842.558594 524.574219 841.550781 524.824219 840.53125 525.03125 C 839.511719 525.234375 838.484375 525.386719 837.453125 525.488281 C 836.417969 525.59375 835.378906 525.644531 834.339844 525.644531 L 542.324219 525.644531 C 541.285156 525.644531 540.246094 525.59375 539.214844 525.488281 C 538.179688 525.386719 537.152344 525.234375 536.132812 525.03125 C 535.113281 524.824219 534.109375 524.574219 533.113281 524.269531 C 532.121094 523.96875 531.140625 523.617188 530.183594 523.21875 C 529.222656 522.820312 528.285156 522.375 527.367188 521.886719 C 526.453125 521.394531 525.5625 520.863281 524.699219 520.285156 C 523.835938 519.707031 523 519.085938 522.195312 518.429688 C 521.394531 517.769531 520.625 517.070312 519.890625 516.335938 C 519.15625 515.601562 518.457031 514.832031 517.796875 514.027344 C 517.140625 513.226562 516.519531 512.390625 515.941406 511.527344 C 515.367188 510.664062 514.832031 509.773438 514.339844 508.859375 C 513.851562 507.941406 513.40625 507.003906 513.007812 506.042969 C 512.609375 505.082031 512.261719 504.105469 511.957031 503.109375 C 511.65625 502.117188 511.402344 501.109375 511.199219 500.089844 C 510.996094 499.070312 510.839844 498.046875 510.738281 497.011719 C 510.636719 495.976562 510.582031 494.941406 510.582031 493.898438 L 510.582031 290.730469 C 510.582031 289.691406 510.636719 288.65625 510.738281 287.621094 C 510.839844 286.585938 510.996094 285.558594 511.199219 284.539062 C 511.402344 283.519531 511.65625 282.515625 511.957031 281.519531 C 512.261719 280.523438 512.609375 279.546875 513.007812 278.589844 C 513.40625 277.628906 513.851562 276.691406 514.339844 275.773438 C 514.832031 274.855469 515.367188 273.96875 515.941406 273.101562 C 516.519531 272.238281 517.140625 271.40625 517.796875 270.601562 C 518.457031 269.796875 519.15625 269.027344 519.890625 268.292969 C 520.625 267.558594 521.394531 266.863281 522.195312 266.203125 C 523 265.542969 523.835938 264.925781 524.699219 264.347656 C 525.5625 263.769531 526.453125 263.234375 527.367188 262.746094 C 528.285156 262.253906 529.222656 261.808594 530.183594 261.410156 C 531.140625 261.011719 532.121094 260.664062 533.113281 260.359375 C 534.109375 260.058594 535.113281 259.804688 536.132812 259.601562 C 537.152344 259.398438 538.179688 259.246094 539.214844 259.140625 C 540.246094 259.039062 541.285156 258.988281 542.324219 258.984375 L 720.390625 258.984375 C 720.800781 258.992188 721.210938 259.039062 721.613281 259.125 C 722.019531 259.210938 722.410156 259.335938 722.789062 259.496094 C 723.167969 259.660156 723.527344 259.855469 723.871094 260.089844 C 724.210938 260.320312 724.527344 260.585938 724.816406 260.878906 C 725.105469 261.171875 725.363281 261.492188 725.589844 261.835938 C 725.816406 262.183594 726.007812 262.546875 726.167969 262.925781 C 726.324219 263.308594 726.441406 263.703125 726.519531 264.109375 C 726.601562 264.511719 726.640625 264.921875 726.640625 265.335938 C 726.640625 265.746094 726.601562 266.15625 726.519531 266.5625 C 726.441406 266.964844 726.324219 267.359375 726.167969 267.742188 C 726.007812 268.125 725.816406 268.488281 725.589844 268.832031 C 725.363281 269.175781 725.105469 269.496094 724.816406 269.789062 C 724.527344 270.082031 724.210938 270.347656 723.871094 270.578125 C 723.527344 270.8125 723.167969 271.011719 722.789062 271.171875 C 722.410156 271.335938 722.019531 271.457031 721.613281 271.546875 C 721.210938 271.632812 720.800781 271.675781 720.390625 271.683594 L 542.324219 271.683594 C 541.699219 271.683594 541.078125 271.714844 540.457031 271.777344 C 539.835938 271.839844 539.222656 271.929688 538.609375 272.054688 C 538 272.175781 537.394531 272.328125 536.796875 272.507812 C 536.199219 272.691406 535.613281 272.898438 535.039062 273.140625 C 534.460938 273.378906 533.898438 273.644531 533.351562 273.9375 C 532.800781 274.234375 532.265625 274.554688 531.746094 274.898438 C 531.230469 275.246094 530.730469 275.617188 530.246094 276.011719 C 529.765625 276.410156 529.304688 276.828125 528.863281 277.269531 C 528.421875 277.710938 528.003906 278.171875 527.609375 278.652344 C 527.210938 279.136719 526.839844 279.636719 526.496094 280.152344 C 526.148438 280.671875 525.828125 281.207031 525.535156 281.757812 C 525.238281 282.304688 524.972656 282.867188 524.734375 283.445312 C 524.496094 284.019531 524.285156 284.605469 524.105469 285.203125 C 523.921875 285.800781 523.769531 286.40625 523.648438 287.015625 C 523.527344 287.628906 523.433594 288.242188 523.371094 288.863281 C 523.3125 289.484375 523.28125 290.105469 523.277344 290.730469 L 523.277344 312.136719 L 680.039062 387.613281 C 688.25 392.105469 697.195312 387.710938 704.613281 383.742188 L 781.3125 346.847656 C 781.6875 346.667969 782.078125 346.527344 782.480469 346.421875 C 782.882812 346.316406 783.292969 346.253906 783.710938 346.230469 C 784.125 346.207031 784.539062 346.226562 784.953125 346.285156 C 785.363281 346.34375 785.769531 346.441406 786.160156 346.578125 C 786.554688 346.714844 786.929688 346.890625 787.289062 347.101562 C 787.648438 347.3125 787.984375 347.558594 788.292969 347.835938 C 788.605469 348.113281 788.886719 348.417969 789.136719 348.753906 C 789.386719 349.085938 789.601562 349.441406 789.78125 349.816406 C 789.964844 350.191406 790.105469 350.582031 790.210938 350.984375 C 790.3125 351.386719 790.378906 351.796875 790.402344 352.214844 C 790.425781 352.628906 790.40625 353.042969 790.347656 353.457031 C 790.289062 353.871094 790.191406 354.273438 790.054688 354.667969 C 789.917969 355.058594 789.742188 355.4375 789.53125 355.796875 C 789.316406 356.152344 789.074219 356.488281 788.796875 356.800781 C 788.519531 357.109375 788.210938 357.390625 787.878906 357.640625 C 787.546875 357.890625 787.191406 358.109375 786.816406 358.289062 C 775.59375 363.6875 720.183594 390.386719 710.125 395.183594 C 699.132812 401.445312 686.457031 405.214844 674.53125 399.050781 L 523.277344 326.226562 L 523.277344 493.898438 C 523.28125 494.523438 523.3125 495.144531 523.371094 495.765625 C 523.433594 496.386719 523.527344 497.003906 523.648438 497.613281 C 523.769531 498.226562 523.921875 498.832031 524.105469 499.425781 C 524.285156 500.023438 524.496094 500.609375 524.734375 501.1875 C 524.972656 501.761719 525.238281 502.324219 525.535156 502.875 C 525.828125 503.425781 526.148438 503.960938 526.496094 504.476562 C 526.839844 504.996094 527.210938 505.496094 527.609375 505.976562 C 528.003906 506.460938 528.421875 506.921875 528.863281 507.363281 C 529.304688 507.804688 529.765625 508.222656 530.246094 508.617188 C 530.730469 509.011719 531.230469 509.382812 531.746094 509.730469 C 532.265625 510.078125 532.800781 510.398438 533.351562 510.691406 C 533.898438 510.988281 534.460938 511.253906 535.039062 511.492188 C 535.613281 511.730469 536.199219 511.941406 536.796875 512.121094 C 537.394531 512.304688 538 512.457031 538.609375 512.578125 C 539.222656 512.699219 539.835938 512.792969 540.457031 512.855469 C 541.078125 512.914062 541.699219 512.945312 542.324219 512.949219 L 834.339844 512.949219 C 834.964844 512.945312 835.585938 512.914062 836.207031 512.855469 C 836.828125 512.792969 837.445312 512.699219 838.054688 512.578125 C 838.667969 512.457031 839.269531 512.304688 839.867188 512.121094 C 840.464844 511.941406 841.050781 511.730469 841.625 511.492188 C 842.203125 511.253906 842.765625 510.988281 843.316406 510.691406 C 843.863281 510.398438 844.398438 510.078125 844.917969 509.730469 C 845.433594 509.382812 845.9375 509.011719 846.417969 508.617188 C 846.898438 508.222656 847.359375 507.804688 847.800781 507.363281 C 848.242188 506.921875 848.660156 506.460938 849.058594 505.976562 C 849.453125 505.496094 849.824219 504.996094 850.171875 504.476562 C 850.515625 503.960938 850.835938 503.425781 851.132812 502.875 C 851.425781 502.324219 851.691406 501.761719 851.929688 501.1875 C 852.167969 500.609375 852.378906 500.023438 852.5625 499.425781 C 852.742188 498.832031 852.894531 498.226562 853.015625 497.613281 C 853.140625 497.003906 853.230469 496.386719 853.292969 495.765625 C 853.355469 495.144531 853.386719 494.523438 853.386719 493.898438 L 853.386719 316.125 C 853.386719 315.710938 853.425781 315.296875 853.507812 314.886719 C 853.589844 314.480469 853.710938 314.082031 853.871094 313.695312 C 854.027344 313.3125 854.222656 312.945312 854.457031 312.597656 C 854.6875 312.253906 854.949219 311.933594 855.246094 311.636719 C 855.539062 311.34375 855.859375 311.078125 856.207031 310.847656 C 856.554688 310.617188 856.917969 310.421875 857.304688 310.261719 C 857.691406 310.101562 858.085938 309.980469 858.496094 309.898438 C 858.90625 309.820312 859.316406 309.777344 859.734375 309.777344 C 860.152344 309.777344 860.5625 309.820312 860.972656 309.898438 C 861.382812 309.980469 861.777344 310.101562 862.164062 310.261719 C 862.546875 310.421875 862.914062 310.617188 863.261719 310.847656 C 863.609375 311.078125 863.929688 311.34375 864.222656 311.636719 C 864.519531 311.933594 864.78125 312.253906 865.011719 312.597656 C 865.242188 312.945312 865.441406 313.3125 865.597656 313.695312 C 865.757812 314.082031 865.878906 314.480469 865.960938 314.886719 C 866.042969 315.296875 866.082031 315.710938 866.082031 316.125 Z M 607.664062 413.222656 L 556.878906 464.015625 C 556.59375 464.3125 556.339844 464.632812 556.117188 464.980469 C 555.894531 465.324219 555.707031 465.691406 555.554688 466.074219 C 555.40625 466.457031 555.289062 466.847656 555.214844 467.253906 C 555.140625 467.660156 555.105469 468.066406 555.109375 468.476562 C 555.113281 468.890625 555.15625 469.296875 555.238281 469.699219 C 555.324219 470.105469 555.445312 470.496094 555.605469 470.875 C 555.761719 471.253906 555.957031 471.613281 556.1875 471.957031 C 556.417969 472.296875 556.675781 472.613281 556.96875 472.90625 C 557.257812 473.195312 557.574219 473.457031 557.917969 473.6875 C 558.257812 473.914062 558.621094 474.109375 559 474.269531 C 559.378906 474.429688 559.769531 474.550781 560.171875 474.632812 C 560.574219 474.71875 560.984375 474.761719 561.394531 474.765625 C 561.804688 474.769531 562.214844 474.734375 562.617188 474.65625 C 563.023438 474.582031 563.417969 474.46875 563.800781 474.316406 C 564.183594 474.164062 564.546875 473.976562 564.894531 473.753906 C 565.238281 473.53125 565.558594 473.277344 565.855469 472.992188 L 616.644531 422.199219 C 616.929688 421.902344 617.183594 421.582031 617.40625 421.238281 C 617.628906 420.890625 617.816406 420.527344 617.96875 420.144531 C 618.121094 419.761719 618.234375 419.367188 618.3125 418.960938 C 618.386719 418.558594 618.421875 418.148438 618.417969 417.738281 C 618.414062 417.324219 618.371094 416.917969 618.289062 416.511719 C 618.203125 416.109375 618.082031 415.71875 617.925781 415.339844 C 617.765625 414.957031 617.570312 414.597656 617.339844 414.257812 C 617.109375 413.914062 616.851562 413.597656 616.558594 413.304688 C 616.269531 413.015625 615.953125 412.753906 615.609375 412.523438 C 615.265625 412.296875 614.90625 412.101562 614.527344 411.941406 C 614.148438 411.78125 613.753906 411.660156 613.351562 411.578125 C 612.949219 411.496094 612.542969 411.449219 612.128906 411.445312 C 611.71875 411.441406 611.308594 411.480469 610.90625 411.554688 C 610.5 411.628906 610.105469 411.742188 609.722656 411.894531 C 609.339844 412.046875 608.976562 412.234375 608.628906 412.460938 C 608.285156 412.683594 607.960938 412.9375 607.664062 413.222656 Z M 760.023438 413.222656 C 759.726562 413.519531 759.464844 413.839844 759.234375 414.183594 C 759 414.53125 758.804688 414.898438 758.644531 415.28125 C 758.488281 415.667969 758.367188 416.066406 758.285156 416.472656 C 758.203125 416.882812 758.164062 417.296875 758.164062 417.710938 C 758.164062 418.128906 758.203125 418.542969 758.285156 418.949219 C 758.367188 419.359375 758.488281 419.757812 758.644531 420.140625 C 758.804688 420.527344 759 420.890625 759.234375 421.238281 C 759.464844 421.585938 759.726562 421.90625 760.023438 422.199219 L 810.808594 472.992188 C 811.101562 473.289062 811.421875 473.554688 811.769531 473.789062 C 812.117188 474.023438 812.484375 474.21875 812.867188 474.378906 C 813.253906 474.542969 813.652344 474.664062 814.0625 474.746094 C 814.46875 474.828125 814.882812 474.871094 815.300781 474.871094 C 815.71875 474.871094 816.132812 474.832031 816.542969 474.75 C 816.953125 474.667969 817.351562 474.550781 817.738281 474.390625 C 818.125 474.230469 818.492188 474.035156 818.839844 473.804688 C 819.1875 473.570312 819.507812 473.308594 819.804688 473.011719 C 820.097656 472.714844 820.363281 472.394531 820.59375 472.046875 C 820.828125 471.699219 821.023438 471.332031 821.183594 470.945312 C 821.339844 470.558594 821.460938 470.160156 821.542969 469.75 C 821.625 469.339844 821.664062 468.925781 821.664062 468.507812 C 821.660156 468.089844 821.621094 467.675781 821.539062 467.269531 C 821.453125 466.859375 821.332031 466.460938 821.171875 466.074219 C 821.011719 465.6875 820.8125 465.324219 820.582031 464.976562 C 820.347656 464.628906 820.082031 464.308594 819.785156 464.015625 L 769 413.222656 C 768.703125 412.929688 768.382812 412.664062 768.039062 412.433594 C 767.691406 412.203125 767.324219 412.003906 766.941406 411.847656 C 766.554688 411.6875 766.15625 411.566406 765.75 411.484375 C 765.339844 411.402344 764.929688 411.363281 764.511719 411.363281 C 764.09375 411.363281 763.679688 411.402344 763.273438 411.484375 C 762.863281 411.566406 762.46875 411.6875 762.082031 411.847656 C 761.695312 412.003906 761.332031 412.203125 760.984375 412.433594 C 760.636719 412.664062 760.316406 412.929688 760.023438 413.222656 Z M 864.0625 251.800781 C 864.378906 252.097656 864.664062 252.421875 864.917969 252.777344 C 865.167969 253.136719 865.382812 253.511719 865.554688 253.914062 C 865.730469 254.3125 865.859375 254.726562 865.949219 255.152344 C 866.039062 255.578125 866.082031 256.011719 866.082031 256.445312 C 866.082031 256.882812 866.039062 257.3125 865.949219 257.742188 C 865.859375 258.167969 865.730469 258.582031 865.554688 258.980469 C 865.382812 259.378906 865.167969 259.757812 864.917969 260.113281 C 864.664062 260.46875 864.378906 260.796875 864.0625 261.09375 L 813.808594 307.875 C 813.351562 308.285156 812.847656 308.625 812.296875 308.890625 C 811.742188 309.15625 811.160156 309.339844 810.554688 309.4375 C 809.949219 309.539062 809.34375 309.546875 808.734375 309.472656 C 808.125 309.394531 807.539062 309.234375 806.972656 308.992188 C 806.410156 308.746094 805.894531 308.425781 805.421875 308.03125 C 804.953125 307.636719 804.546875 307.183594 804.207031 306.675781 C 803.867188 306.164062 803.605469 305.613281 803.421875 305.027344 C 803.238281 304.441406 803.144531 303.839844 803.132812 303.226562 L 803.132812 283.292969 C 763.394531 286.984375 738.324219 324.117188 738.058594 324.515625 C 737.675781 325.070312 737.214844 325.554688 736.675781 325.964844 C 736.140625 326.375 735.550781 326.691406 734.914062 326.914062 C 734.277344 327.140625 733.621094 327.257812 732.945312 327.273438 C 732.269531 327.289062 731.609375 327.199219 730.960938 327.003906 C 730.3125 326.808594 729.714844 326.515625 729.160156 326.132812 C 728.605469 325.746094 728.121094 325.28125 727.714844 324.746094 C 727.308594 324.207031 726.992188 323.617188 726.773438 322.976562 C 726.550781 322.339844 726.433594 321.683594 726.421875 321.007812 L 726.421875 315.230469 C 726.421875 313.9375 726.453125 312.644531 726.515625 311.355469 C 726.578125 310.0625 726.671875 308.773438 726.792969 307.488281 C 726.914062 306.199219 727.066406 304.914062 727.25 303.636719 C 727.429688 302.355469 727.640625 301.082031 727.882812 299.808594 C 728.125 298.539062 728.394531 297.277344 728.695312 296.019531 C 728.996094 294.761719 729.324219 293.511719 729.683594 292.269531 C 730.039062 291.027344 730.429688 289.792969 730.84375 288.570312 C 731.261719 287.34375 731.703125 286.132812 732.175781 284.929688 C 732.648438 283.726562 733.148438 282.53125 733.675781 281.351562 C 734.207031 280.171875 734.761719 279.003906 735.34375 277.851562 C 735.925781 276.699219 736.535156 275.558594 737.171875 274.429688 C 737.804688 273.304688 738.46875 272.195312 739.15625 271.101562 C 739.84375 270.003906 740.554688 268.925781 741.292969 267.867188 C 742.03125 266.804688 742.792969 265.757812 743.578125 264.734375 C 744.363281 263.707031 745.175781 262.699219 746.007812 261.710938 C 746.839844 260.722656 747.695312 259.753906 748.574219 258.804688 C 749.453125 257.855469 750.355469 256.929688 751.277344 256.023438 C 752.199219 255.117188 753.140625 254.230469 754.101562 253.371094 C 755.066406 252.507812 756.046875 251.667969 757.050781 250.851562 C 758.050781 250.035156 759.074219 249.242188 760.113281 248.472656 C 761.152344 247.703125 762.207031 246.957031 763.28125 246.238281 C 764.355469 245.519531 765.445312 244.824219 766.550781 244.152344 C 767.65625 243.484375 768.777344 242.84375 769.914062 242.226562 C 771.050781 241.609375 772.199219 241.019531 773.363281 240.457031 C 774.527344 239.890625 775.703125 239.355469 776.890625 238.847656 C 778.082031 238.339844 779.28125 237.859375 780.492188 237.40625 C 781.703125 236.953125 782.921875 236.53125 784.152344 236.132812 C 785.386719 235.738281 786.625 235.371094 787.871094 235.035156 C 789.121094 234.695312 790.375 234.390625 791.636719 234.109375 C 792.898438 233.832031 794.167969 233.582031 795.441406 233.359375 C 796.714844 233.140625 797.992188 232.949219 799.277344 232.789062 C 800.558594 232.628906 801.84375 232.5 803.132812 232.398438 L 803.132812 209.664062 C 803.144531 209.046875 803.238281 208.449219 803.421875 207.863281 C 803.605469 207.277344 803.863281 206.726562 804.207031 206.214844 C 804.546875 205.703125 804.953125 205.253906 805.421875 204.859375 C 805.894531 204.464844 806.410156 204.144531 806.972656 203.898438 C 807.535156 203.652344 808.125 203.492188 808.734375 203.417969 C 809.34375 203.339844 809.949219 203.351562 810.554688 203.453125 C 811.160156 203.550781 811.742188 203.734375 812.292969 204 C 812.847656 204.265625 813.351562 204.605469 813.808594 205.015625 Z M 850.417969 256.445312 L 815.828125 224.246094 L 815.828125 238.507812 C 815.832031 238.925781 815.789062 239.339844 815.707031 239.746094 C 815.628906 240.15625 815.507812 240.554688 815.347656 240.9375 C 815.1875 241.324219 814.992188 241.691406 814.761719 242.035156 C 814.527344 242.382812 814.265625 242.703125 813.972656 243 C 813.675781 243.292969 813.355469 243.558594 813.007812 243.789062 C 812.664062 244.019531 812.296875 244.214844 811.910156 244.375 C 811.527344 244.535156 811.128906 244.65625 810.71875 244.738281 C 810.3125 244.816406 809.898438 244.859375 809.480469 244.859375 C 807.453125 244.859375 805.425781 244.949219 803.40625 245.128906 C 801.382812 245.304688 799.375 245.570312 797.375 245.921875 C 795.375 246.273438 793.398438 246.710938 791.433594 247.230469 C 789.472656 247.753906 787.539062 248.359375 785.632812 249.046875 C 783.722656 249.738281 781.847656 250.507812 780.003906 251.359375 C 778.164062 252.210938 776.359375 253.140625 774.597656 254.148438 C 772.835938 255.15625 771.121094 256.234375 769.453125 257.390625 C 767.785156 258.546875 766.167969 259.773438 764.605469 261.066406 C 763.042969 262.363281 761.539062 263.722656 760.09375 265.144531 C 758.648438 266.570312 757.269531 268.054688 755.953125 269.597656 C 754.632812 271.144531 753.386719 272.742188 752.207031 274.394531 C 751.027344 276.046875 749.921875 277.746094 748.890625 279.492188 C 747.859375 281.238281 746.902344 283.027344 746.027344 284.859375 C 745.148438 286.6875 744.351562 288.554688 743.636719 290.453125 C 742.917969 292.351562 742.285156 294.277344 741.734375 296.230469 C 741.183594 298.183594 740.71875 300.15625 740.339844 302.152344 C 753.949219 288.359375 777.816406 270.300781 809.480469 270.300781 C 809.898438 270.300781 810.3125 270.339844 810.71875 270.421875 C 811.128906 270.503906 811.527344 270.625 811.910156 270.785156 C 812.296875 270.941406 812.664062 271.140625 813.007812 271.371094 C 813.355469 271.601562 813.675781 271.863281 813.972656 272.160156 C 814.265625 272.453125 814.527344 272.777344 814.761719 273.121094 C 814.992188 273.46875 815.1875 273.835938 815.347656 274.21875 C 815.507812 274.605469 815.628906 275.003906 815.707031 275.410156 C 815.789062 275.820312 815.828125 276.234375 815.828125 276.648438 L 815.828125 288.644531 Z M 850.417969 256.445312 " clip-rule="nonzero"/></clipPath><linearGradient x1="3.999999" gradientTransform="matrix(6.348214, 0, 0, 6.349051, 485.189612, 161.309889)" y1="32.000999" x2="59.999997" gradientUnits="userSpaceOnUse" y2="32.000999" id="46ea9b806a"><stop stop-opacity="1" stop-color="rgb(49.798584%, 0%, 100%)" offset="0"/><stop stop-opacity="1" stop-color="rgb(49.94812%, 0%, 100%)" offset="0.0078125"/><stop stop-opacity="1" stop-color="rgb(50.248718%, 0%, 100%)" offset="0.015625"/><stop stop-opacity="1" stop-color="rgb(50.549316%, 0%, 100%)" offset="0.0234375"/><stop stop-opacity="1" stop-color="rgb(50.848389%, 0%, 100%)" offset="0.03125"/><stop stop-opacity="1" stop-color="rgb(51.148987%, 0%, 100%)" offset="0.0390625"/><stop stop-opacity="1" stop-color="rgb(51.448059%, 0%, 100%)" offset="0.046875"/><stop stop-opacity="1" stop-color="rgb(51.748657%, 0%, 100%)" offset="0.0546875"/><stop stop-opacity="1" stop-color="rgb(52.049255%, 0%, 100%)" offset="0.0625"/><stop stop-opacity="1" stop-color="rgb(52.348328%, 0%, 100%)" offset="0.0703125"/><stop stop-opacity="1" stop-color="rgb(52.648926%, 0%, 100%)" offset="0.078125"/><stop stop-opacity="1" stop-color="rgb(52.949524%, 0%, 100%)" offset="0.0859375"/><stop stop-opacity="1" stop-color="rgb(53.248596%, 0%, 100%)" offset="0.09375"/><stop stop-opacity="1" stop-color="rgb(53.549194%, 0%, 100%)" offset="0.101562"/><stop stop-opacity="1" stop-color="rgb(53.848267%, 0%, 100%)" offset="0.109375"/><stop stop-opacity="1" stop-color="rgb(54.148865%, 0%, 100%)" offset="0.117188"/><stop stop-opacity="1" stop-color="rgb(54.449463%, 0%, 100%)" offset="0.125"/><stop stop-opacity="1" stop-color="rgb(54.748535%, 0%, 100%)" offset="0.132813"/><stop stop-opacity="1" stop-color="rgb(55.049133%, 0%, 100%)" offset="0.140625"/><stop stop-opacity="1" stop-color="rgb(55.348206%, 0%, 100%)" offset="0.148438"/><stop stop-opacity="1" stop-color="rgb(55.648804%, 0%, 100%)" offset="0.15625"/><stop stop-opacity="1" stop-color="rgb(55.949402%, 0%, 100%)" offset="0.164063"/><stop stop-opacity="1" stop-color="rgb(56.248474%, 0%, 100%)" offset="0.171875"/><stop stop-opacity="1" stop-color="rgb(56.549072%, 0%, 100%)" offset="0.179688"/><stop stop-opacity="1" stop-color="rgb(56.848145%, 0%, 100%)" offset="0.1875"/><stop stop-opacity="1" stop-color="rgb(57.148743%, 0%, 100%)" offset="0.195313"/><stop stop-opacity="1" stop-color="rgb(57.449341%, 0%, 100%)" offset="0.203125"/><stop stop-opacity="1" stop-color="rgb(57.748413%, 0%, 100%)" offset="0.210938"/><stop stop-opacity="1" stop-color="rgb(58.049011%, 0%, 100%)" offset="0.21875"/><stop stop-opacity="1" stop-color="rgb(58.348083%, 0%, 100%)" offset="0.226563"/><stop stop-opacity="1" stop-color="rgb(58.648682%, 0%, 100%)" offset="0.234375"/><stop stop-opacity="1" stop-color="rgb(58.94928%, 0%, 100%)" offset="0.242188"/><stop stop-opacity="1" stop-color="rgb(59.248352%, 0%, 100%)" offset="0.25"/><stop stop-opacity="1" stop-color="rgb(59.54895%, 0%, 100%)" offset="0.257812"/><stop stop-opacity="1" stop-color="rgb(59.848022%, 0%, 100%)" offset="0.265625"/><stop stop-opacity="1" stop-color="rgb(60.148621%, 0%, 100%)" offset="0.273438"/><stop stop-opacity="1" stop-color="rgb(60.449219%, 0%, 100%)" offset="0.28125"/><stop stop-opacity="1" stop-color="rgb(60.748291%, 0%, 100%)" offset="0.289062"/><stop stop-opacity="1" stop-color="rgb(61.048889%, 0%, 100%)" offset="0.296875"/><stop stop-opacity="1" stop-color="rgb(61.349487%, 0%, 100%)" offset="0.304688"/><stop stop-opacity="1" stop-color="rgb(61.64856%, 0%, 100%)" offset="0.3125"/><stop stop-opacity="1" stop-color="rgb(61.949158%, 0%, 100%)" offset="0.320313"/><stop stop-opacity="1" stop-color="rgb(62.24823%, 0%, 100%)" offset="0.328125"/><stop stop-opacity="1" stop-color="rgb(62.548828%, 0%, 100%)" offset="0.335938"/><stop stop-opacity="1" stop-color="rgb(62.849426%, 0%, 100%)" offset="0.34375"/><stop stop-opacity="1" stop-color="rgb(63.148499%, 0%, 100%)" offset="0.351562"/><stop stop-opacity="1" stop-color="rgb(63.449097%, 0%, 100%)" offset="0.359375"/><stop stop-opacity="1" stop-color="rgb(63.748169%, 0%, 100%)" offset="0.367188"/><stop stop-opacity="1" stop-color="rgb(64.048767%, 0%, 100%)" offset="0.375"/><stop stop-opacity="1" stop-color="rgb(64.349365%, 0%, 100%)" offset="0.382813"/><stop stop-opacity="1" stop-color="rgb(64.648438%, 0%, 100%)" offset="0.390625"/><stop stop-opacity="1" stop-color="rgb(64.949036%, 0%, 100%)" offset="0.398438"/><stop stop-opacity="1" stop-color="rgb(65.248108%, 0%, 100%)" offset="0.40625"/><stop stop-opacity="1" stop-color="rgb(65.548706%, 0%, 100%)" offset="0.414062"/><stop stop-opacity="1" stop-color="rgb(65.849304%, 0%, 100%)" offset="0.421875"/><stop stop-opacity="1" stop-color="rgb(66.148376%, 0%, 100%)" offset="0.429688"/><stop stop-opacity="1" stop-color="rgb(66.448975%, 0%, 100%)" offset="0.4375"/><stop stop-opacity="1" stop-color="rgb(66.748047%, 0%, 100%)" offset="0.445313"/><stop stop-opacity="1" stop-color="rgb(67.048645%, 0%, 100%)" offset="0.453125"/><stop stop-opacity="1" stop-color="rgb(67.349243%, 0%, 100%)" offset="0.460938"/><stop stop-opacity="1" stop-color="rgb(67.648315%, 0%, 100%)" offset="0.46875"/><stop stop-opacity="1" stop-color="rgb(67.948914%, 0%, 100%)" offset="0.476562"/><stop stop-opacity="1" stop-color="rgb(68.249512%, 0%, 100%)" offset="0.484375"/><stop stop-opacity="1" stop-color="rgb(68.548584%, 0%, 100%)" offset="0.492188"/><stop stop-opacity="1" stop-color="rgb(68.849182%, 0%, 100%)" offset="0.5"/><stop stop-opacity="1" stop-color="rgb(69.148254%, 0%, 100%)" offset="0.507812"/><stop stop-opacity="1" stop-color="rgb(69.448853%, 0%, 100%)" offset="0.515625"/><stop stop-opacity="1" stop-color="rgb(69.749451%, 0%, 100%)" offset="0.523437"/><stop stop-opacity="1" stop-color="rgb(70.048523%, 0%, 100%)" offset="0.53125"/><stop stop-opacity="1" stop-color="rgb(70.349121%, 0%, 100%)" offset="0.539062"/><stop stop-opacity="1" stop-color="rgb(70.648193%, 0%, 100%)" offset="0.546875"/><stop stop-opacity="1" stop-color="rgb(70.948792%, 0%, 100%)" offset="0.554688"/><stop stop-opacity="1" stop-color="rgb(71.24939%, 0%, 100%)" offset="0.5625"/><stop stop-opacity="1" stop-color="rgb(71.548462%, 0%, 100%)" offset="0.570312"/><stop stop-opacity="1" stop-color="rgb(71.84906%, 0%, 100%)" offset="0.578125"/><stop stop-opacity="1" stop-color="rgb(72.148132%, 0%, 100%)" offset="0.585938"/><stop stop-opacity="1" stop-color="rgb(72.44873%, 0%, 100%)" offset="0.59375"/><stop stop-opacity="1" stop-color="rgb(72.749329%, 0%, 100%)" offset="0.601563"/><stop stop-opacity="1" stop-color="rgb(73.048401%, 0%, 100%)" offset="0.609375"/><stop stop-opacity="1" stop-color="rgb(73.348999%, 0%, 100%)" offset="0.617188"/><stop stop-opacity="1" stop-color="rgb(73.648071%, 0%, 100%)" offset="0.625"/><stop stop-opacity="1" stop-color="rgb(73.948669%, 0%, 100%)" offset="0.632812"/><stop stop-opacity="1" stop-color="rgb(74.249268%, 0%, 100%)" offset="0.640625"/><stop stop-opacity="1" stop-color="rgb(74.54834%, 0%, 100%)" offset="0.648437"/><stop stop-opacity="1" stop-color="rgb(74.848938%, 0%, 100%)" offset="0.65625"/><stop stop-opacity="1" stop-color="rgb(75.14801%, 0%, 100%)" offset="0.664062"/><stop stop-opacity="1" stop-color="rgb(75.448608%, 0%, 100%)" offset="0.671875"/><stop stop-opacity="1" stop-color="rgb(75.749207%, 0%, 100%)" offset="0.679688"/><stop stop-opacity="1" stop-color="rgb(76.048279%, 0%, 100%)" offset="0.6875"/><stop stop-opacity="1" stop-color="rgb(76.348877%, 0%, 100%)" offset="0.695312"/><stop stop-opacity="1" stop-color="rgb(76.649475%, 0%, 100%)" offset="0.703125"/><stop stop-opacity="1" stop-color="rgb(76.948547%, 0%, 100%)" offset="0.710938"/><stop stop-opacity="1" stop-color="rgb(77.249146%, 0%, 100%)" offset="0.71875"/><stop stop-opacity="1" stop-color="rgb(77.548218%, 0%, 100%)" offset="0.726563"/><stop stop-opacity="1" stop-color="rgb(77.848816%, 0%, 100%)" offset="0.734375"/><stop stop-opacity="1" stop-color="rgb(78.149414%, 0%, 100%)" offset="0.742188"/><stop stop-opacity="1" stop-color="rgb(78.448486%, 0%, 100%)" offset="0.75"/><stop stop-opacity="1" stop-color="rgb(78.749084%, 0%, 100%)" offset="0.757812"/><stop stop-opacity="1" stop-color="rgb(79.048157%, 0%, 100%)" offset="0.765625"/><stop stop-opacity="1" stop-color="rgb(79.348755%, 0%, 100%)" offset="0.773437"/><stop stop-opacity="1" stop-color="rgb(79.649353%, 0%, 100%)" offset="0.78125"/><stop stop-opacity="1" stop-color="rgb(79.948425%, 0%, 100%)" offset="0.789062"/><stop stop-opacity="1" stop-color="rgb(80.249023%, 0%, 100%)" offset="0.796875"/><stop stop-opacity="1" stop-color="rgb(80.548096%, 0%, 100%)" offset="0.804688"/><stop stop-opacity="1" stop-color="rgb(80.848694%, 0%, 100%)" offset="0.8125"/><stop stop-opacity="1" stop-color="rgb(81.149292%, 0%, 100%)" offset="0.820312"/><stop stop-opacity="1" stop-color="rgb(81.448364%, 0%, 100%)" offset="0.828125"/><stop stop-opacity="1" stop-color="rgb(81.748962%, 0%, 100%)" offset="0.835938"/><stop stop-opacity="1" stop-color="rgb(82.048035%, 0%, 100%)" offset="0.84375"/><stop stop-opacity="1" stop-color="rgb(82.348633%, 0%, 100%)" offset="0.851563"/><stop stop-opacity="1" stop-color="rgb(82.649231%, 0%, 100%)" offset="0.859375"/><stop stop-opacity="1" stop-color="rgb(82.948303%, 0%, 100%)" offset="0.867188"/><stop stop-opacity="1" stop-color="rgb(83.248901%, 0%, 100%)" offset="0.875"/><stop stop-opacity="1" stop-color="rgb(83.5495%, 0%, 100%)" offset="0.882812"/><stop stop-opacity="1" stop-color="rgb(83.848572%, 0%, 100%)" offset="0.890625"/><stop stop-opacity="1" stop-color="rgb(84.14917%, 0%, 100%)" offset="0.898437"/><stop stop-opacity="1" stop-color="rgb(84.448242%, 0%, 100%)" offset="0.90625"/><stop stop-opacity="1" stop-color="rgb(84.74884%, 0%, 100%)" offset="0.914062"/><stop stop-opacity="1" stop-color="rgb(85.049438%, 0%, 100%)" offset="0.921875"/><stop stop-opacity="1" stop-color="rgb(85.348511%, 0%, 100%)" offset="0.929688"/><stop stop-opacity="1" stop-color="rgb(85.649109%, 0%, 100%)" offset="0.9375"/><stop stop-opacity="1" stop-color="rgb(85.948181%, 0%, 100%)" offset="0.945312"/><stop stop-opacity="1" stop-color="rgb(86.248779%, 0%, 100%)" offset="0.953125"/><stop stop-opacity="1" stop-color="rgb(86.549377%, 0%, 100%)" offset="0.960938"/><stop stop-opacity="1" stop-color="rgb(86.84845%, 0%, 100%)" offset="0.96875"/><stop stop-opacity="1" stop-color="rgb(87.149048%, 0%, 100%)" offset="0.976563"/><stop stop-opacity="1" stop-color="rgb(87.44812%, 0%, 100%)" offset="0.984375"/><stop stop-opacity="1" stop-color="rgb(87.748718%, 0%, 100%)" offset="0.992188"/><stop stop-opacity="1" stop-color="rgb(88.049316%, 0%, 100%)" offset="1"/></linearGradient></defs><g clip-path="url(#d63473358a)"><g clip-path="url(#7df7b92ab3)"><path fill="url(#46ea9b806a)" d="M 510.582031 203.339844 L 510.582031 525.644531 L 866.082031 525.644531 L 866.082031 203.339844 Z M 510.582031 203.339844 " fill-rule="nonzero"/></g></g></svg>