<svg width="100" height="100" viewBox="0 0 100 100" fill="none" xmlns="http://www.w3.org/2000/svg">
<rect width="100" height="100" rx="50" fill="#F3EEFF"/>
<g clip-path="url(#clip0_801_222)">
<path d="M57.5 53.75C59.9159 53.7501 62.2384 54.6829 63.9833 56.3537C65.7282 58.0246 66.7608 60.3045 66.8656 62.7181L66.875 63.125V65C66.8753 65.9461 66.518 66.8573 65.8747 67.551C65.2314 68.2447 64.3497 68.6697 63.4062 68.7406L63.125 68.75H36.875C35.9289 68.7503 35.0177 68.393 34.324 67.7497C33.6303 67.1064 33.2053 66.2247 33.1344 65.2812L33.125 65V63.125C33.1251 60.7091 34.0579 58.3866 35.7287 56.6417C37.3996 54.8968 39.6795 53.8642 42.0931 53.7594L42.5 53.75H57.5ZM50 31.25C52.4864 31.25 54.871 32.2377 56.6291 33.9959C58.3873 35.754 59.375 38.1386 59.375 40.625C59.375 43.1114 58.3873 45.496 56.6291 47.2541C54.871 49.0123 52.4864 50 50 50C47.5136 50 45.129 49.0123 43.3709 47.2541C41.6127 45.496 40.625 43.1114 40.625 40.625C40.625 38.1386 41.6127 35.754 43.3709 33.9959C45.129 32.2377 47.5136 31.25 50 31.25Z" fill="#9477E1"/>
</g>
<defs>
<clipPath id="clip0_801_222">
<rect width="45" height="45" fill="white" transform="translate(27.5 27.5)"/>
</clipPath>
</defs>
</svg>
